<?xml version="1.0" encoding="UTF-8"?>
<svg id="Layer_2" data-name="Layer 2" xmlns="http://www.w3.org/2000/svg" viewBox="0 0 285.96 280.46">
  <g id="Layer_1-2" data-name="Layer 1">
    <g>
      <g>
        <rect x="263.57" y="22.36" width="29.5" height="15.13" transform="translate(247.05 308.1) rotate(-89.72)" style="fill: #000101;"/>
        <rect x="255.88" y=".04" width="15.13" height="15.13" transform="translate(254.57 271.01) rotate(-89.72)" style="fill: #000101;"/>
        <g>
          <rect x="16.81" y=".04" width="15.13" height="15.13" transform="translate(16.66 31.94) rotate(-89.72)" style="fill: #000101;"/>
          <rect x="31.87" y=".11" width="15.13" height="15.13" transform="translate(31.56 47.07) rotate(-89.72)" style="fill: #000101;"/>
          <rect x="16.74" y="15.09" width="15.13" height="15.13" transform="translate(1.53 46.84) rotate(-89.72)" style="fill: #000101;"/>
        </g>
        <rect x="255.65" y="29.35" width="15.13" height="15.13" transform="translate(225.03 299.95) rotate(-89.72)" style="fill: #000101;"/>
        <rect x="259.73" y="164.29" width="15.13" height="15.13" transform="translate(94.14 438.32) rotate(-89.72)" style="fill: #000101;"/>
        <rect x="244.47" y="178.74" width="15.13" height="15.13" transform="translate(64.51 437.43) rotate(-89.72)" style="fill: #000101;"/>
      </g>
      <g>
        <rect x="212.66" y="201.99" width="63.96" height="63.96" transform="translate(-.58 .61) rotate(-.14)" style="fill: none; stroke: #000101; stroke-miterlimit: 10; stroke-width: 4.93px;"/>
        <rect x="226.48" y="215.81" width="36.21" height="36.21" transform="translate(-.58 .61) rotate(-.14)" style="fill: #000101;"/>
      </g>
      <g>
        <g>
          <path d="M111.62,213.04l-3.34,48.72-1.22,16.28-45.48-.06c1.93-10.75,14.24-17.65,18.4-17.65l4.5-47.29h27.15Z" style="fill: #f1be47; stroke: #000101; stroke-miterlimit: 10; stroke-width: 3.61px;"/>
          <path d="M152.87,277.75h-17.05l-28.44-.12.89-15.87,4.6-48.72,27.15-8.67-3.27,55.96c4.15,0,14.18,6.67,16.12,17.42Z" style="fill: #f1be47; stroke: #000101; stroke-miterlimit: 10; stroke-width: 3.61px;"/>
          <path d="M80.86,207.84c3.37,8.45,5.37,8.62,30.76,8.62s30.27-1.33,30.27-13.2-61.03,4.57-61.03,4.57Z" style="fill: #000101;"/>
          <path d="M187.27,144.96c16.5-3.57,41.34-23.14,43.21-25.86s-.17-42.02-.68-41.51,3.74,2.55-2.55,2.89c-6.29.34-10.38,4.42-11.06,11.23s-4.76,13.61-9.36,16.33-27.9,10.72-27.9,10.72l8.34,26.2Z" style="fill: #f1be47;"/>
          <polygon points="238.99 33.09 228.32 33.09 228.32 72.15 228.32 137.57 238.99 137.57 238.99 33.09" style="fill: #000101;"/>
          <path d="M188.58,144.53c18.97-4.1,37.59-19.99,42.71-27.34" style="fill: none; stroke: #000101; stroke-linecap: round; stroke-linejoin: round; stroke-width: 3.61px;"/>
          <path d="M223.39,89.7c.06.06.12.11.18.17,5,4.61,8.53,4.88,10.54,4.32s4.16-4.58.52-7.65-7.18-6.23-9.35-6.09-2.27,7.93-2.27,7.93l.38,1.32Z" style="fill: #f1bd47;"/>
          <path d="M184.14,117.19c21.53-3.93,31.61-16.23,31.61-21.53s3.42-21.87,15.55-11.96c12.13,9.91-1.03,13.67-4.95,8.03" style="fill: none; stroke: #000101; stroke-linecap: round; stroke-linejoin: round; stroke-width: 3.61px;"/>
          <path d="M241.9,86.45l-4.49,1.12c-1.46.36-3.04-.8-3.58-2.64h0c-.55-1.85.12-3.75,1.52-4.33l4.33-1.76c1.58-.64,3.42.64,3.94,2.75l.16.65c.49,1.95-.36,3.84-1.88,4.22Z" style="fill: #f1bd47; stroke: #000101; stroke-linecap: square; stroke-linejoin: round; stroke-width: 3.61px;"/>
          <path d="M243.54,95.08l-4.53.94c-1.48.31-3-.91-3.48-2.78h0c-.48-1.87.26-3.75,1.69-4.26l4.39-1.6c1.6-.58,3.39.77,3.83,2.9l.14.65c.41,1.97-.51,3.83-2.04,4.15Z" style="fill: #f1bd47; stroke: #000101; stroke-linecap: square; stroke-linejoin: round; stroke-width: 3.61px;"/>
          <path d="M244.11,103.74l-4.56.74c-1.49.24-2.96-1.04-3.36-2.93h0c-.4-1.89.43-3.73,1.87-4.19l4.46-1.4c1.63-.51,3.36.92,3.7,3.06l.11.66c.32,1.99-.67,3.8-2.22,4.05Z" style="fill: #f1bd47; stroke: #000101; stroke-linecap: square; stroke-linejoin: round; stroke-width: 3.61px;"/>
          <polygon points="232.24 6.72 239.06 18.77 252.63 21.54 243.28 31.75 244.84 45.51 232.24 39.77 219.64 45.51 221.2 31.75 211.85 21.54 225.42 18.77 232.24 6.72" style="fill: #fff; stroke: #000101; stroke-linecap: round; stroke-linejoin: round; stroke-width: 3.61px;"/>
          <rect x="27.45" y="45.33" width="162.16" height="162.16" transform="translate(-11.77 11.14) rotate(-5.58)" style="fill: #f1be47; stroke: #000101; stroke-miterlimit: 10; stroke-width: 3.61px;"/>
          <path d="M30.89,121.17c-32.08,19.09-41.42,44.88-8.53,59.09,32.9,14.21,28.63,15.84,33.1,20.92,4.19,4.76,11.41.77,6.95-5.43-.17-.24.1-.54.35-.39,9.9,5.81,15.84.93,5.08-8.71-.21-.18-.03-.52.24-.46,12.36,2.58,11.39-7.72,1.77-9.65-.31-.06-.42-.46-.19-.68,8.37-7.84.29-13.37-5.27-9.2s-20.51-2.84-29.85-8.73c-9.34-5.89-4.67-8.93.2-12.18" style="fill: #f1be47; stroke: #000101; stroke-linecap: round; stroke-linejoin: round; stroke-width: 3.61px;"/>
          <g>
            <path d="M102.62,131.94c11.49,11.31,26.21,4.13,30.87,1.97" style="fill: none; stroke: #000101; stroke-linecap: round; stroke-linejoin: round; stroke-width: 3.61px;"/>
            <path d="M119.3,128.32l12.09-7.68c1.48-.94.73-3.24-1.02-3.12l-12.99.86c-.98.06-1.7.94-1.57,1.91l.9,6.82c.16,1.23,1.54,1.88,2.59,1.21Z" style="fill: #000101;"/>
            <rect x="128.57" y="26.97" width="75.78" height="75.78" transform="translate(-5.35 15.88) rotate(-5.38)" style="fill: #fff; stroke: #000101; stroke-miterlimit: 10; stroke-width: 3.61px;"/>
            <rect x="45.2" y="34.72" width="75.78" height="75.78" transform="translate(-6.44 8.1) rotate(-5.38)" style="fill: #fff; stroke: #000101; stroke-miterlimit: 10; stroke-width: 3.61px;"/>
            <rect x="94.43" y="40.84" width="16.79" height="35.45" transform="translate(-5.03 9.89) rotate(-5.38)" style="fill: #000101;"/>
            <rect x="176.68" y="32.72" width="16.79" height="35.45" transform="translate(-3.91 17.56) rotate(-5.38)" style="fill: #000101;"/>
            <rect x="91.93" y="45.54" width="6.76" height="6.76" transform="translate(-4.13 9.06) rotate(-5.33)" style="fill: #fff;"/>
            <rect x="173.68" y="37.11" width="6.76" height="6.76" transform="translate(-2.99 16.61) rotate(-5.33)" style="fill: #fff;"/>
          </g>
          <line x1="46.15" y1="85.99" x2="23.53" y2="91.24" style="fill: #fff; stroke: #000101; stroke-miterlimit: 10; stroke-width: 4.12px;"/>
          <line x1="122.53" y1="82.15" x2="129.68" y2="81.37" style="fill: #fff; stroke: #000101; stroke-miterlimit: 10; stroke-width: 4.12px;"/>
        </g>
        <line x1="34.89" y1="278.46" x2="189.57" y2="278.46" style="fill: none; stroke: #000101; stroke-linecap: round; stroke-linejoin: round; stroke-width: 4px;"/>
      </g>
    </g>
  </g>
</svg>